<svg width="0" height="0" class="hidden">
  <symbol fill="none" xmlns="http://www.w3.org/2000/svg" viewBox="0 0 17 31" id="next">
    <path d="M16.3884 16.89L3.56511 29.9182C2.7494 30.7473 1.42686 30.7473 0.611538 29.9182C-0.203846 29.0897 -0.203846 27.7461 0.611538 26.9177L11.9581 15.3898L0.611868 3.86229C-0.203516 3.03352 -0.203516 1.69001 0.611868 0.86157C1.42725 0.0327972 2.74973 0.0327972 3.56544 0.86157L16.3887 13.8899C16.7964 14.3043 17 14.8469 17 15.3897C17 15.9328 16.796 16.4758 16.3884 16.89Z" fill="#ADDDDE"></path>
  </symbol>
  <symbol fill="none" xmlns="http://www.w3.org/2000/svg" viewBox="0 0 17 31" id="prev">
    <path d="M0.611637 13.8199L13.4349 0.791803C14.2506 -0.0373713 15.5731 -0.0373713 16.3885 0.791803C17.2038 1.62024 17.2038 2.96389 16.3885 3.79226L5.04186 15.3202L16.3881 26.8477C17.2035 27.6764 17.2035 29.02 16.3881 29.8484C15.5727 30.6772 14.2503 30.6772 13.4346 29.8484L0.611307 16.8201C0.203615 16.4056 0 15.8631 0 15.3202C0 14.7771 0.204011 14.2342 0.611637 13.8199Z" fill="#ADDDDE"></path>
  </symbol>
</svg>